PathFileType	4	(X/Y/Z)	C:/Users/dbak576/Desktop/Duncan Bakke Modelling Files/H23s1/Static_H23s1.trc	
DataRate	CameraRate	NumFrames	NumMarkers	Units	OrigDataRate	OrigDataStartFrame	OrigNumFrames	
200.00	200.00	4	60	mm	200.00	4	8	
Frame#	Time	LFHD			RFHD			LBHD			RBHD			C7			T10			STRN			RBack			LASI			RASI			LPSI			RPSI			RACR1			RUA1			RElbow			RElbowM			RFA1			RWRR			RWRU			RCAR			LACR1			LUA1			LElbow			LElbowM			LFA1			LWRR			LWRU			LCAR			RTH1			RTH3			RTH2			RTH4			RLFC			RMFC			RTB1			RTB3			RTB2			RTB4			RLMAL			RMMAL			RCAL			RMT1			RMT5			RToe			LTH1			LTH3			LTH2			LTH4			LLFC			LMFC			LTB1			LTB3			LTB2			LTB4			LLMAL			LMMAL			LCAL			LMT1			LMT5			LToe			
		X1	Y1	Z1	X2	Y2	Z2	X3	Y3	Z3	X4	Y4	Z4	X5	Y5	Z5	X6	Y6	Z6	X7	Y7	Z7	X8	Y8	Z8	X9	Y9	Z9	X10	Y10	Z10	X11	Y11	Z11	X12	Y12	Z12	X13	Y13	Z13	X14	Y14	Z14	X15	Y15	Z15	X16	Y16	Z16	X17	Y17	Z17	X18	Y18	Z18	X19	Y19	Z19	X20	Y20	Z20	X21	Y21	Z21	X22	Y22	Z22	X23	Y23	Z23	X24	Y24	Z24	X25	Y25	Z25	X26	Y26	Z26	X27	Y27	Z27	X28	Y28	Z28	X29	Y29	Z29	X30	Y30	Z30	X31	Y31	Z31	X32	Y32	Z32	X33	Y33	Z33	X34	Y34	Z34	X35	Y35	Z35	X36	Y36	Z36	X37	Y37	Z37	X38	Y38	Z38	X39	Y39	Z39	X40	Y40	Z40	X41	Y41	Z41	X42	Y42	Z42	X43	Y43	Z43	X44	Y44	Z44	X45	Y45	Z45	X46	Y46	Z46	X47	Y47	Z47	X48	Y48	Z48	X49	Y49	Z49	X50	Y50	Z50	X51	Y51	Z51	X52	Y52	Z52	X53	Y53	Z53	X54	Y54	Z54	X55	Y55	Z55	X56	Y56	Z56	X57	Y57	Z57	X58	Y58	Z58	X59	Y59	Z59	X60	Y60	Z60	

1	0.000	-83.18503	-288.87967	1658.92090	-8.64385	-287.31644	1660.27063	-110.30556	-468.03763	1636.38879	27.50166	-464.89197	1635.65942	-50.42447	-501.27948	1491.24231	-45.50713	-538.76929	1223.68066	-34.15215	-264.46246	1284.96472	78.55020	-543.36261	1383.17871	-182.91579	-333.45938	1051.15051	125.31359	-362.61893	1021.83112	-73.13184	-537.67505	1047.85803	-4.82940	-544.33044	1050.89624	70.82185	-458.87158	1491.39380	238.75540	-471.13245	1475.44958	406.59479	-463.65982	1442.68835	388.68036	-410.51364	1394.04932	556.76813	-447.64563	1468.49341	654.46045	-392.42682	1557.61633	677.83069	-383.68433	1479.21667	719.51129	-407.55859	1534.40381	-179.13591	-444.37680	1482.73047	-356.58957	-439.25677	1437.43835	-491.32681	-427.16461	1398.46350	-475.55695	-368.88440	1354.55554	-620.29388	-398.02698	1401.62720	-732.65039	-353.26895	1509.32312	-761.63678	-353.61588	1434.33752	-789.09723	-372.84488	1499.81348	169.18994	-420.75568	768.20587	156.94167	-419.36624	578.45135	123.15968	-353.06693	673.97974	164.57916	-416.79803	672.57861	157.39650	-419.19278	531.32245	38.71879	-440.43640	483.51343	97.01936	-388.13947	377.22849	123.61224	-426.91223	196.82553	183.29633	-416.13943	295.10605	109.35785	-407.69342	282.14636	196.63005	-491.44016	76.34335	119.06491	-465.66400	67.31155	146.88806	-547.61371	33.11056	148.19243	-337.57803	29.34680	233.98994	-374.28604	22.50683	185.07906	-280.90164	21.48196	-209.60480	-399.34677	773.30615	-188.41153	-420.23206	587.38080	-151.27560	-354.73337	677.61981	-200.92555	-409.06827	680.61719	-186.58907	-437.98929	524.96185	-65.63446	-445.31866	490.05206	-115.47921	-409.02737	387.87198	-136.94685	-439.67517	206.81720	-196.72905	-428.87589	304.74069	-125.09417	-426.21527	297.10773	-205.06306	-500.39532	64.01392	-122.19103	-480.06262	64.81169	-161.06027	-565.26715	33.33572	-145.45901	-347.92639	29.90394	-232.90176	-381.77972	21.93716	-169.16309	-288.74094	20.81859 
2	0.005	-83.17878	-288.83505	1658.92102	-8.64192	-287.32083	1660.27673	-110.32536	-467.99097	1636.39221	27.52791	-464.88153	1635.67334	-50.43024	-501.27878	1491.25745	-45.53635	-538.78510	1223.68945	-34.14577	-264.46252	1284.96265	78.51250	-543.39258	1383.16248	-182.91447	-333.45874	1051.14795	125.27197	-362.58893	1021.80530	-73.16297	-537.63739	1047.85254	-4.85765	-544.35236	1050.90002	70.78918	-458.87888	1491.37646	238.68228	-471.17996	1475.45850	406.58289	-463.66644	1442.66370	388.68921	-410.68362	1393.99475	556.75928	-447.65298	1468.48694	654.46283	-392.43063	1557.61035	677.81714	-383.80115	1479.21216	719.50995	-407.63870	1534.45703	-179.19469	-444.36932	1482.76355	-356.58459	-439.20206	1437.40369	-491.33307	-427.11713	1398.44275	-475.56100	-368.90237	1354.55457	-620.31152	-397.96347	1401.60388	-732.67700	-353.26596	1509.32947	-761.68542	-353.54413	1434.35254	-789.14252	-372.72586	1499.74817	169.22185	-420.74451	768.20721	156.91631	-419.41629	578.47412	123.18519	-353.05704	673.99060	164.57138	-416.79095	672.55536	157.40096	-419.19437	531.32410	38.72960	-440.43640	483.48459	97.06786	-388.02463	377.09595	123.70694	-426.82126	196.68010	183.33232	-416.15503	295.10184	109.40269	-407.69647	282.11191	196.59113	-491.48077	76.36598	119.02520	-465.65112	67.31036	146.78973	-547.51691	33.12585	148.17126	-337.58014	29.35534	233.98154	-374.28513	22.50035	185.23254	-280.88641	21.51490	-209.56921	-399.36417	773.32819	-188.41066	-420.23190	587.38007	-151.25288	-354.73395	677.60510	-200.92245	-409.06967	680.62341	-186.61798	-437.99045	524.96112	-65.77800	-445.31570	489.94669	-115.49704	-409.04816	387.87332	-136.94864	-439.67740	206.81822	-196.72073	-428.88513	304.74109	-125.03129	-426.25845	297.09711	-205.04544	-500.35629	63.98658	-122.18530	-480.05023	64.81597	-161.05539	-565.25128	33.31359	-145.46399	-347.91016	29.87134	-232.92906	-381.78195	21.89938	-169.15192	-288.75235	20.79739 
3	0.010	-83.16583	-288.83899	1658.91162	-8.63964	-287.31894	1660.26367	-110.36302	-467.96527	1636.39929	27.52573	-464.87997	1635.66003	-50.09631	-501.30020	1491.09387	-45.64100	-538.86414	1223.73792	-34.16182	-264.46121	1284.96875	78.51673	-543.35144	1383.17297	-182.89415	-333.44241	1051.10486	125.28958	-362.57922	1021.81097	-73.20533	-537.61475	1047.82654	-4.83366	-544.33716	1050.89587	70.77792	-458.88599	1491.39404	238.63101	-471.20950	1475.42578	406.58133	-463.66437	1442.66211	388.70288	-410.73694	1393.98523	556.73914	-447.67676	1468.48291	654.46375	-392.46136	1557.60559	677.82294	-383.91302	1479.22021	719.47919	-407.63831	1534.42358	-179.18663	-444.34909	1482.71301	-356.65182	-439.17407	1437.42407	-491.36377	-427.14240	1398.46631	-475.56860	-368.76743	1354.56958	-620.35333	-397.97272	1401.62451	-732.70081	-353.26807	1509.30701	-761.68506	-353.47079	1434.36292	-789.15967	-372.71368	1499.71655	169.18364	-420.74985	768.20099	156.91525	-419.42148	578.47565	123.17809	-353.07104	673.99536	164.56328	-416.79080	672.54114	157.37506	-419.20038	531.32104	38.71114	-440.45029	483.45673	97.07404	-388.01999	377.08490	123.68046	-426.85492	196.70618	183.32471	-416.16440	295.12177	109.41582	-407.69299	282.11887	196.62163	-491.46957	76.33981	118.91505	-465.78876	67.33476	146.88890	-547.62689	33.11768	148.19565	-337.57904	29.34306	233.98404	-374.28436	22.51379	185.26199	-280.88345	21.49869	-209.58722	-399.37677	773.29993	-188.41078	-420.23199	587.38031	-151.27109	-354.73758	677.61017	-200.93190	-409.07913	680.63013	-186.59561	-437.98505	524.95337	-65.67896	-445.31711	490.06851	-115.48553	-409.02310	387.87000	-136.95549	-439.67361	206.80894	-196.71861	-428.88654	304.74048	-125.01781	-426.26831	297.04559	-205.09216	-500.32791	64.00037	-122.19379	-480.10464	64.82507	-161.05682	-565.26434	33.33336	-145.47531	-347.88974	29.88703	-232.90753	-381.80469	21.93753	-169.14626	-288.84625	20.92797 
4	0.015	-83.16415	-288.84064	1658.91089	-8.64419	-287.31607	1660.27039	-110.35912	-467.96240	1636.39441	27.47879	-464.88104	1635.65112	-50.40915	-501.25836	1491.20422	-45.55041	-538.80969	1223.72168	-34.22427	-264.44910	1284.99597	78.48545	-543.36157	1383.18262	-182.90765	-333.45999	1051.08643	125.30991	-362.60156	1021.81293	-73.22803	-537.62811	1047.81519	-4.86603	-544.32397	1050.89551	70.73820	-458.88873	1491.38794	238.62497	-471.20377	1475.43347	406.54688	-463.67889	1442.66345	388.70068	-410.72870	1393.96204	556.74152	-447.67700	1468.48633	654.39117	-392.52414	1557.60669	677.80701	-383.94446	1479.23291	719.51239	-407.52658	1534.36987	-179.22760	-444.34604	1482.73425	-356.63181	-439.12943	1437.42126	-491.40604	-427.14810	1398.46387	-475.51556	-368.80176	1354.83228	-620.35791	-397.88663	1401.62402	-732.75037	-353.24283	1509.30408	-761.72510	-353.47491	1434.29980	-789.19037	-372.64511	1499.65405	169.17326	-420.77313	768.21924	156.91335	-419.41013	578.48907	123.17822	-353.11478	673.97766	164.51744	-416.82529	672.53723	157.37430	-419.25058	531.33423	38.73009	-440.40482	483.48166	97.09301	-388.02838	377.11844	123.65737	-426.85696	196.72839	183.30011	-416.17679	295.08917	109.41195	-407.69635	282.10565	196.64240	-491.47742	76.40201	119.03797	-465.66745	67.30253	146.83914	-547.53790	33.11419	148.20668	-337.57913	29.34662	233.96786	-374.27075	22.52156	185.12289	-280.90619	21.48532	-209.61548	-399.39087	773.30981	-188.41815	-420.24469	587.40900	-151.28773	-354.74469	677.63611	-200.95422	-409.08273	680.61469	-186.62907	-438.00391	524.96881	-65.54172	-445.34158	490.11325	-115.49216	-409.03122	387.87039	-136.95068	-439.66931	206.80911	-196.73926	-428.85471	304.73911	-125.14139	-426.20944	297.07034	-205.09047	-500.37436	64.02069	-122.19017	-480.11023	64.80136	-161.05757	-565.26630	33.33585	-145.47598	-347.93164	29.86068	-232.88129	-381.78638	21.93671	-169.09485	-288.78952	20.86576 
